<?xml version="1.0" encoding="UTF-8" standalone="no"?>
<svg width="19px" height="19px" viewBox="0 0 19 19" version="1.1" xmlns="http://www.w3.org/2000/svg" xmlns:xlink="http://www.w3.org/1999/xlink" xmlns:sketch="http://www.bohemiancoding.com/sketch/ns">
    <!-- Generator: Sketch 3.1.1 (8761) - http://www.bohemiancoding.com/sketch -->
    <title>Dribbble</title>
    <desc>Created with Sketch.</desc>
    <defs></defs>
    <g id="Clean" stroke="none" stroke-width="1" fill="none" fill-rule="evenodd" sketch:type="MSPage">
        <g id="Sidepanel" sketch:type="MSArtboardGroup" transform="translate(-61.000000, -972.000000)" fill="#BFBFBF">
            <path d="M73.1658986,988.300403 C72.8332357,986.391552 72.2788057,984.419365 71.5025922,982.383785 L71.4788306,982.383785 L71.4550691,982.395665 C71.3283404,982.443189 71.1580512,982.508532 70.9441964,982.591698 C70.7303417,982.674864 70.3303601,982.868914 69.7442396,983.173855 C69.1581192,983.478796 68.6155699,983.803534 68.1165755,984.148077 C67.617581,984.492621 67.098793,984.946066 66.5601959,985.508425 C66.0215987,986.070783 65.6136967,986.656895 65.3364775,987.266777 L65.1582661,987.136089 C66.6156467,988.324171 68.2710161,988.918203 70.124424,988.918203 C71.1699361,988.918203 72.1837508,988.712272 73.1658986,988.300403 L73.1658986,988.300403 Z M70.9679579,981.088782 C70.8016265,980.700675 70.5917351,980.261091 70.3382776,979.770017 C67.8749877,980.506628 65.2097638,980.874928 62.3425259,980.874928 C62.3346054,980.930372 62.3306452,981.013536 62.3306452,981.124424 C62.3306452,982.106572 62.5048946,983.043162 62.8533986,983.934224 C63.2019027,984.825285 63.6929692,985.623268 64.3266129,986.328197 C64.7226402,985.623268 65.2117266,984.963893 65.7938868,984.35005 C66.376047,983.736208 66.9403775,983.243161 67.4868952,982.870896 C68.0334129,982.49863 68.5502208,982.177853 69.0373344,981.908554 C69.524448,981.639256 69.9184893,981.449165 70.21947,981.338278 L70.6590582,981.183828 C70.6907404,981.175907 70.7422231,981.162046 70.8135081,981.142245 C70.884793,981.122444 70.9362758,981.104623 70.9679579,981.088782 L70.9679579,981.088782 Z M69.6967166,978.57006 C68.746251,976.882984 67.7799588,975.386023 66.7978111,974.079133 C65.7047756,974.593969 64.7780856,975.330568 64.0177131,976.288954 C63.2573407,977.247341 62.7504333,978.324519 62.4969758,979.520521 C64.8889809,979.520521 67.2888704,979.203704 69.6967166,978.57006 L69.6967166,978.57006 Z M77.8231567,982.360023 C76.1598419,981.88479 74.5401144,981.769944 72.9639257,982.015481 C73.6530132,983.908492 74.1599206,985.765832 74.484663,987.587558 C75.3638437,986.993517 76.0964832,986.243056 76.6826037,985.336154 C77.2687241,984.429251 77.6489047,983.437217 77.8231567,982.360023 L77.8231567,982.360023 Z M68.2591446,973.55638 C68.251224,973.55638 68.2433036,973.56034 68.2353831,973.56826 C68.2433036,973.56034 68.251224,973.55638 68.2591446,973.55638 L68.2591446,973.55638 Z M75.2687932,975.27909 C73.8034921,973.98012 72.0887195,973.330645 70.124424,973.330645 C69.5224624,973.330645 68.9086293,973.405889 68.2829061,973.55638 C69.3204977,974.902873 70.2947103,976.415674 71.2055732,978.09483 C71.7520909,977.888896 72.2669187,977.649303 72.750072,977.376044 C73.2332253,977.102785 73.615386,976.859232 73.8965654,976.645377 C74.1777448,976.431523 74.4371388,976.20579 74.6747552,975.968174 C74.9123716,975.730558 75.0608796,975.570169 75.1202837,975.487003 C75.1796878,975.403837 75.2291905,975.334534 75.2687932,975.27909 L75.2687932,975.27909 Z M77.9182028,981.041259 C77.8944411,979.203692 77.3043693,977.580004 76.1479695,976.170147 L76.1360887,976.182028 C76.0648038,976.277074 75.9895597,976.374099 75.9103543,976.473106 C75.8311488,976.572113 75.6588795,976.748343 75.3935412,977.0018 C75.1282029,977.255258 74.8470277,977.494851 74.5500072,977.720586 C74.2529867,977.946322 73.8569653,978.203736 73.3619312,978.492836 C72.866897,978.781935 72.3461289,979.037369 71.7996112,979.259145 C71.9976248,979.678934 72.1718742,980.055154 72.3223646,980.387817 C72.3382057,980.43534 72.3639471,980.504644 72.3995896,980.59573 C72.435232,980.686816 72.4649336,980.75216 72.4886953,980.791763 C72.773835,980.75216 73.0688709,980.724438 73.3738119,980.708597 C73.678753,980.692756 73.9698287,980.684836 74.2470478,980.684836 C74.5242669,980.684836 74.7975217,980.690776 75.0668203,980.702657 C75.3361189,980.714538 75.5895725,980.730379 75.8271889,980.75018 C76.0648053,980.769981 76.2885574,980.791763 76.4984519,980.815524 C76.7083464,980.839286 76.8984366,980.865027 77.0687284,980.892749 C77.2390201,980.920471 77.383568,980.944232 77.5023762,980.964034 C77.6211843,980.983835 77.7201897,981.001656 77.7993952,981.017497 L77.9182028,981.041259 Z M79.2488479,981.124424 C79.2488479,982.779818 78.8409459,984.306481 78.0251296,985.704457 C77.2093133,987.102434 76.1024335,988.209313 74.7044571,989.02513 C73.3064806,989.840946 71.7798182,990.248848 70.124424,990.248848 C68.4690297,990.248848 66.9423673,989.840946 65.5443908,989.02513 C64.1464144,988.209313 63.0395346,987.102434 62.2237183,985.704457 C61.407902,984.306481 61,982.779818 61,981.124424 C61,979.46903 61.407902,977.942367 62.2237183,976.544391 C63.0395346,975.146414 64.1464144,974.039535 65.5443908,973.223718 C66.9423673,972.407902 68.4690297,972 70.124424,972 C71.7798182,972 73.3064806,972.407902 74.7044571,973.223718 C76.1024335,974.039535 77.2093133,975.146414 78.0251296,976.544391 C78.8409459,977.942367 79.2488479,979.46903 79.2488479,981.124424 L79.2488479,981.124424 Z" id="Dribbble" sketch:type="MSShapeGroup"></path>
        </g>
    </g>
</svg>