<?xml version="1.0" encoding="UTF-8" standalone="no"?>
<svg width="19px" height="18px" viewBox="0 0 19 18" version="1.1" xmlns="http://www.w3.org/2000/svg" xmlns:xlink="http://www.w3.org/1999/xlink" xmlns:sketch="http://www.bohemiancoding.com/sketch/ns">
    <!-- Generator: Sketch 3.1.1 (8761) - http://www.bohemiancoding.com/sketch -->
    <title>Github</title>
    <desc>Created with Sketch.</desc>
    <defs></defs>
    <g id="Clean" stroke="none" stroke-width="1" fill="none" fill-rule="evenodd" sketch:type="MSPage">
        <g id="Sidepanel" sketch:type="MSArtboardGroup" transform="translate(-109.000000, -973.000000)" fill="#BFBFBF">
            <path d="M127.248848,982.124424 C127.248848,984.112481 126.668677,985.900518 125.508317,987.488587 C124.347956,989.076657 122.849016,990.175616 121.011449,990.785498 C120.797594,990.825101 120.641166,990.79738 120.542159,990.702333 C120.443152,990.607286 120.393649,990.48848 120.393649,990.34591 L120.393649,987.83907 C120.393649,987.070777 120.187718,986.508426 119.77585,986.152002 C120.227321,986.104478 120.633243,986.033195 120.993628,985.938148 C121.354012,985.843101 121.726273,985.688653 122.110419,985.474798 C122.494566,985.260944 122.815343,984.997589 123.072761,984.684728 C123.330178,984.371866 123.54007,983.956044 123.702441,983.437248 C123.864812,982.918452 123.945997,982.32244 123.945997,981.649194 C123.945997,980.690807 123.63314,979.875003 123.007416,979.201757 C123.300477,978.480987 123.268795,977.673104 122.91237,976.778082 C122.690595,976.706797 122.369818,976.750359 121.950029,976.90877 C121.53024,977.067181 121.1659,977.241431 120.856999,977.431524 L120.40553,977.716662 C119.668919,977.510728 118.908558,977.407762 118.124424,977.407762 C117.34029,977.407762 116.579929,977.510728 115.843318,977.716662 C115.716589,977.629536 115.54828,977.52261 115.338386,977.395881 C115.128491,977.269153 114.797813,977.116684 114.346342,976.938472 C113.894871,976.76026 113.554293,976.706797 113.324597,976.778082 C112.976093,977.673104 112.948371,978.480987 113.241431,979.201757 C112.615708,979.875003 112.302851,980.690807 112.302851,981.649194 C112.302851,982.32244 112.384036,982.916472 112.546407,983.431308 C112.708778,983.946143 112.916689,984.361966 113.170147,984.678787 C113.423604,984.995609 113.742402,985.260944 114.126548,985.474798 C114.510695,985.688653 114.882955,985.843101 115.24334,985.938148 C115.603724,986.033195 116.009646,986.104478 116.461118,986.152002 C116.144296,986.437141 115.950245,986.845043 115.87896,987.37572 C115.712629,987.454926 115.534419,987.514329 115.344326,987.553931 C115.154233,987.593534 114.928501,987.613335 114.667123,987.613335 C114.405745,987.613335 114.146351,987.528191 113.888933,987.357899 C113.631515,987.187607 113.411723,986.940094 113.229551,986.615351 C113.07906,986.361894 112.88699,986.155963 112.653334,985.997552 C112.419678,985.839141 112.223647,985.744096 112.065236,985.712414 L111.827621,985.676771 C111.661289,985.676771 111.546443,985.694592 111.483079,985.730235 C111.419715,985.765877 111.399913,985.81142 111.423675,985.866863 C111.447437,985.922307 111.483079,985.97775 111.530602,986.033194 C111.578125,986.088638 111.629608,986.136161 111.685052,986.175763 L111.768217,986.235167 C111.942469,986.314373 112.114738,986.464861 112.28503,986.686636 C112.455322,986.908411 112.580069,987.110382 112.659274,987.292555 L112.778082,987.565812 C112.881049,987.866793 113.055298,988.110346 113.300835,988.296479 C113.546372,988.482612 113.811707,988.601418 114.096846,988.652902 C114.381986,988.704385 114.657221,988.732107 114.922559,988.736067 C115.187897,988.740027 115.407689,988.726167 115.581941,988.694484 L115.855199,988.646961 C115.855199,988.947942 115.857179,989.300401 115.861139,989.704349 C115.865099,990.108297 115.867079,990.322148 115.867079,990.34591 C115.867079,990.48848 115.815597,990.607286 115.71263,990.702333 C115.609663,990.79738 115.451254,990.825101 115.237399,990.785498 C113.399832,990.175616 111.900891,989.076657 110.740531,987.488587 C109.580171,985.900518 109,984.112481 109,982.124424 C109,980.46903 109.407902,978.942367 110.223718,977.544391 C111.039535,976.146414 112.146414,975.039535 113.544391,974.223718 C114.942367,973.407902 116.46903,973 118.124424,973 C119.779818,973 121.306481,973.407902 122.704457,974.223718 C124.102434,975.039535 125.209313,976.146414 126.02513,977.544391 C126.840946,978.942367 127.248848,980.46903 127.248848,982.124424 L127.248848,982.124424 Z" id="Github" sketch:type="MSShapeGroup"></path>
        </g>
    </g>
</svg>