<?xml version="1.0" encoding="UTF-8" standalone="no"?>
<svg width="99px" height="69px" viewBox="0 0 99 69" version="1.1" xmlns="http://www.w3.org/2000/svg" xmlns:xlink="http://www.w3.org/1999/xlink" xmlns:sketch="http://www.bohemiancoding.com/sketch/ns">
    <!-- Generator: Sketch 3.1.1 (8761) - http://www.bohemiancoding.com/sketch -->
    <title>salesforce</title>
    <desc>Created with Sketch.</desc>
    <defs>
        <path id="path-1" d="M0.0217582418,0.180628272 L98.6968352,0.180628272 L98.6968352,68.9783246 L0.0217582418,68.9783246"></path>
    </defs>
    <g id="Clean" stroke="none" stroke-width="1" fill="none" fill-rule="evenodd" sketch:type="MSPage">
        <g id="Intro" sketch:type="MSArtboardGroup" transform="translate(-67.000000, -21.000000)">
            <g id="salesforce" sketch:type="MSLayerGroup" transform="translate(67.000000, 21.000000)">
                <g id="Group-3">
                    <mask id="mask-2" sketch:name="Clip 2" fill="white">
                        <use xlink:href="#path-1"></use>
                    </mask>
                    <g id="Clip-2"></g>
                    <path d="M41.0715824,7.6864555 C44.2544505,4.38312565 48.6862418,2.33335602 53.5872857,2.33335602 C60.1020659,2.33335602 65.7867692,5.95242408 68.812978,11.3257539 C71.4446374,10.1538377 74.3562527,9.5028534 77.4194505,9.5028534 C89.1703516,9.5028534 98.6968352,19.0757906 98.6968352,30.885267 C98.6968352,42.6947435 89.1703516,52.2680419 77.4194505,52.2680419 C75.9844945,52.2680419 74.5832637,52.1242618 73.2277253,51.8518743 C70.5627033,56.5875864 65.4821538,59.7879581 59.6523956,59.7879581 C57.2118462,59.7879581 54.9029341,59.2269267 52.8475055,58.2276911 C50.1458571,64.5601571 43.849022,69 36.5125055,69 C28.8706484,69 22.3576813,64.1837277 19.8594725,57.4289529 C18.7664835,57.6590733 17.633967,57.7800942 16.4731648,57.7800942 C7.37495604,57.7800942 0,50.3562723 0,41.1987801 C0,35.0610314 3.31305495,29.7025131 8.23730769,26.8359424 C7.22337363,24.5112565 6.6601978,21.9470576 6.6601978,19.2517225 C6.6601978,8.71928796 15.2427363,0.180628272 25.8295714,0.180628272 C32.0451758,0.180628272 37.5692308,3.1241466 41.0715824,7.6864555" id="Fill-1" fill="#0092C6" sketch:type="MSShapeGroup" mask="url(#mask-2)"></path>
                </g>
                <path d="M14.2951648,35.868801 C14.2331538,36.0299215 14.3172857,36.0635183 14.3372308,36.0920576 C14.5225385,36.2257225 14.7107473,36.3225393 14.9007692,36.4312775 C15.9070879,36.9619634 16.8582857,37.1176649 17.8519121,37.1176649 C19.8765165,37.1176649 21.1341429,36.0454555 21.1341429,34.3186492 L21.1341429,34.2846911 C21.1341429,32.6879372 19.7144176,32.1077592 18.3839011,31.6890628 L18.2101978,31.6330681 C17.2067802,31.3086597 16.3408022,31.0279634 16.3408022,30.3693927 L16.3408022,30.3357958 C16.3408022,29.7718743 16.847044,29.3575131 17.6314286,29.3575131 C18.5035714,29.3575131 19.5370879,29.6461571 20.2036154,30.0128325 C20.2036154,30.0128325 20.4001648,30.1392723 20.4716044,29.9503351 C20.5104066,29.8480995 20.8472967,28.9442356 20.8831978,28.8463351 C20.9216374,28.7404869 20.8541868,28.6606492 20.7849231,28.619466 C20.0237473,28.1574188 18.9724615,27.8431257 17.8841868,27.8431257 L17.6821978,27.8438482 C15.8291209,27.8438482 14.5352308,28.9601309 14.5352308,30.5576073 L14.5352308,30.5919267 C14.5352308,32.2753822 15.9625714,32.8226859 17.2996154,33.203089 L17.5142967,33.2695602 C18.487978,33.5672356 19.3289341,33.8244503 19.3289341,34.5068639 L19.3289341,34.540822 C19.3289341,35.1657958 18.7824396,35.6300105 17.9023187,35.6300105 C17.5610769,35.6300105 16.4717143,35.6242304 15.2945934,34.8825707 C15.1520769,34.7998429 15.0708462,34.7402356 14.960967,34.6734031 C14.9029451,34.6383613 14.7578901,34.5751414 14.6947912,34.7644398 L14.2951648,35.868801" id="Fill-4" fill="#FFFFFF" sketch:type="MSShapeGroup"></path>
                <path d="M43.9335165,35.868801 C43.8715055,36.0299215 43.9556374,36.0635183 43.9763077,36.0920576 C44.1608901,36.2257225 44.3494615,36.3225393 44.5391209,36.4312775 C45.5458022,36.9619634 46.497,37.1176649 47.4902637,37.1176649 C49.5148681,37.1176649 50.7728571,36.0454555 50.7728571,34.3186492 L50.7728571,34.2846911 C50.7728571,32.6879372 49.3534945,32.1077592 48.0226154,31.6890628 L47.8489121,31.6330681 C46.8454945,31.3086597 45.9791538,31.0279634 45.9791538,30.3693927 L45.9791538,30.3357958 C45.9791538,29.7718743 46.4857582,29.3575131 47.2705055,29.3575131 C48.1422857,29.3575131 49.1754396,29.6461571 49.841967,30.0128325 C49.841967,30.0128325 50.0385165,30.1392723 50.1103187,29.9503351 C50.1487582,29.8480995 50.486011,28.9442356 50.5215495,28.8463351 C50.5603516,28.7404869 50.4925385,28.6606492 50.4236374,28.619466 C49.6620989,28.1574188 48.6111758,27.8431257 47.5229011,27.8431257 L47.3205495,27.8438482 C45.4678352,27.8438482 44.1739451,28.9601309 44.1739451,30.5576073 L44.1739451,30.5919267 C44.1739451,32.2753822 45.6009231,32.8226859 46.9383297,33.203089 L47.1526484,33.2695602 C48.1266923,33.5672356 48.9676484,33.8244503 48.9676484,34.5068639 L48.9676484,34.540822 C48.9676484,35.1657958 48.4207912,35.6300105 47.5413956,35.6300105 C47.1994286,35.6300105 46.1100659,35.6242304 44.9333077,34.8825707 C44.7907912,34.7998429 44.7073846,34.7427644 44.5993187,34.6734031 C44.5626923,34.6502827 44.3918901,34.5838115 44.3335055,34.7644398 L43.9335165,35.868801" id="Fill-5" fill="#FFFFFF" sketch:type="MSShapeGroup"></path>
                <path d="M64.1668681,32.4859948 C64.1668681,33.4613874 63.9840989,34.2315864 63.6250879,34.774555 C63.2682527,35.3128272 62.7297363,35.5747382 61.9787143,35.5747382 C61.2276923,35.5747382 60.6920769,35.3131885 60.341044,34.7752775 C59.9867473,34.2319476 59.8068791,33.4613874 59.8068791,32.4859948 C59.8068791,31.5113246 59.9867473,30.7436545 60.341044,30.2061047 C60.6920769,29.6732513 61.2276923,29.4145916 61.9787143,29.4145916 C62.7297363,29.4145916 63.2682527,29.6736126 63.6250879,30.206466 C63.9848242,30.7436545 64.1668681,31.5113246 64.1668681,32.4859948 M65.8574835,30.6771832 C65.691033,30.1175969 65.4324725,29.6252042 65.0883297,29.2144555 C64.7434615,28.802623 64.3072088,28.4713508 63.7900879,28.2314764 C63.2736923,27.9912408 62.6644615,27.8694974 61.9787143,27.8694974 C61.292967,27.8694974 60.6833736,27.9912408 60.1666154,28.2314764 C59.6502198,28.4713508 59.2136044,28.802623 58.8687363,29.215178 C58.524956,29.6266492 58.2656703,30.1183194 58.0999451,30.6771832 C57.9349451,31.2324346 57.8511758,31.8411518 57.8511758,32.4859948 C57.8511758,33.131199 57.9349451,33.7402775 58.0999451,34.2948063 C58.2656703,34.8533089 58.5242308,35.3453403 58.8690989,35.757534 C59.213967,36.170089 59.6516703,36.4984712 60.1673407,36.7325654 C60.6844615,36.9666597 61.2936923,37.0858743 61.9787143,37.0858743 C62.6640989,37.0858743 63.2726044,36.9666597 63.7893626,36.7325654 C64.3057582,36.4984712 64.7427363,36.170089 65.0883297,35.757534 C65.4324725,35.3467853 65.691033,34.8540314 65.8574835,34.2948063 C66.0221209,33.7391937 66.1058901,33.1304764 66.1058901,32.4859948 C66.1058901,31.8418743 66.0221209,31.2327958 65.8574835,30.6771832" id="Fill-6" fill="#FFFFFF" sketch:type="MSShapeGroup"></path>
                <path d="M79.7345275,35.3135497 C79.679044,35.1499005 79.5187582,35.2116754 79.5187582,35.2116754 C79.2732527,35.3052408 79.0121538,35.3919424 78.7329231,35.4352932 C78.4515165,35.4793665 78.140011,35.5014031 77.8067473,35.5014031 C76.9897253,35.5014031 76.3387912,35.259 75.8742527,34.7799738 C75.4075385,34.3005864 75.1453516,33.5260524 75.1482527,32.4784084 C75.1507912,31.5261361 75.3821538,30.8086806 75.797011,30.2617382 C76.2082418,29.7184084 76.8363297,29.4395183 77.6714835,29.4395183 C78.3688352,29.4395183 78.9008242,29.5200785 79.4581978,29.6942042 C79.4581978,29.6942042 79.5905604,29.751644 79.654022,29.5778796 C79.8023407,29.1685759 79.9118571,28.8774031 80.069967,28.4276387 C80.1149341,28.2993927 80.0046923,28.2452042 79.9644396,28.2296702 C79.7454066,28.1444136 79.2279231,28.0046073 78.8373626,27.9457225 C78.4721868,27.890089 78.0453626,27.8611885 77.5692198,27.8611885 C76.8595385,27.8611885 76.2267363,27.9822094 75.6856813,28.2220838 C75.1457143,28.4615969 74.6877033,28.7925079 74.3247033,29.2039791 C73.9617033,29.6161728 73.6853736,30.1085654 73.5026044,30.6670681 C73.3194725,31.2226806 73.227,31.8324817 73.227,32.4791309 C73.227,33.8753874 73.6052308,35.0035916 74.3511758,35.8301466 C75.0996593,36.6595916 76.2223846,37.0808168 77.6878022,37.0808168 C78.5534176,37.0808168 79.4415165,36.9063298 80.0812088,36.6556178 C80.0812088,36.6556178 80.2030549,36.5970942 80.1501099,36.4554817 L79.7345275,35.3135497" id="Fill-7" fill="#FFFFFF" sketch:type="MSShapeGroup"></path>
                <path d="M82.6914725,31.5507016 C82.7723407,31.0084555 82.9213846,30.5579686 83.1538352,30.2061047 C83.5045055,29.6732513 84.0383077,29.3795497 84.7893297,29.3795497 C85.5407143,29.3795497 86.0357143,29.6736126 86.3925495,30.206466 C86.6282637,30.5586911 86.7312527,31.0279634 86.7715055,31.5514241 L82.6914725,31.5507016 L82.6914725,31.5507016 Z M88.3808901,30.3596387 C88.2369231,29.8199215 87.8822637,29.2747853 87.6490879,29.0255183 C87.281011,28.6303037 86.9205495,28.3535812 86.5626264,28.2007696 C86.0966374,28.0017173 85.5367253,27.8694974 84.9245934,27.8694974 C84.2105604,27.8694974 83.5618022,27.9897958 83.0356154,28.2354503 C82.5087033,28.4818272 82.0659231,28.8185183 81.7188791,29.2368534 C81.3711099,29.6548272 81.1103736,30.1522775 80.9439231,30.7165602 C80.7771099,31.2775916 80.692978,31.889199 80.692978,32.5351257 C80.692978,33.1918901 80.7803736,33.8042199 80.9522637,34.3547749 C81.125967,34.9100262 81.4048352,35.3973613 81.7812527,35.8030524 C82.1573077,36.2101885 82.6414286,36.5295393 83.2198352,36.7520733 C83.7953407,36.9742461 84.4945055,37.0894869 85.2962967,37.0869581 C86.9491978,37.0815393 87.8184396,36.7145026 88.1774505,36.5168953 C88.2409121,36.4814921 88.3007473,36.4204398 88.226044,36.2445079 L87.8518022,35.201199 C87.7945055,35.0454974 87.6363956,35.1018534 87.6363956,35.1018534 C87.2262527,35.2543037 86.6456703,35.5263298 85.287956,35.5234398 C84.4009451,35.5219948 83.7438462,35.2608063 83.3308022,34.8529476 C82.9083297,34.4356963 82.7009011,33.8230052 82.6657253,32.9574346 L88.3852418,32.9617696 C88.3852418,32.9617696 88.5360989,32.9603246 88.5516923,32.8136545 C88.5578571,32.7529634 88.7478791,31.6431832 88.3808901,30.3596387 L88.3808901,30.3596387 Z" id="Fill-8" fill="#FFFFFF" sketch:type="MSShapeGroup"></path>
                <path d="M36.8762308,31.5507016 C36.9570989,31.0084555 37.1065055,30.5579686 37.3385934,30.2061047 C37.6896264,29.6732513 38.2227033,29.3795497 38.9744505,29.3795497 C39.7258352,29.3795497 40.2208352,29.6736126 40.5776703,30.206466 C40.813022,30.5586911 40.916011,31.0279634 40.9562637,31.5514241 L36.8762308,31.5507016 L36.8762308,31.5507016 Z M42.5656484,30.3596387 C42.422044,29.8199215 42.067022,29.2747853 41.8342088,29.0255183 C41.4661319,28.6303037 41.106033,28.3535812 40.7477473,28.2007696 C40.281033,28.0017173 39.7214835,27.8694974 39.1097143,27.8694974 C38.3956813,27.8694974 37.7469231,27.9897958 37.2207363,28.2354503 C36.6938242,28.4818272 36.251044,28.8185183 35.9032747,29.2368534 C35.5562308,29.6548272 35.2954945,30.1522775 35.1283187,30.7165602 C34.9618681,31.2775916 34.8780989,31.889199 34.8780989,32.5351257 C34.8780989,33.1918901 34.9647692,33.8042199 35.1377473,34.3547749 C35.3110879,34.9100262 35.5903187,35.3973613 35.966011,35.8030524 C36.3424286,36.2101885 36.8261868,36.5295393 37.4045934,36.7520733 C37.9804615,36.9742461 38.6789011,37.0894869 39.4814176,37.0869581 C41.133956,37.0815393 42.0035604,36.7145026 42.3625714,36.5168953 C42.4256703,36.4814921 42.4858681,36.4204398 42.4108022,36.2445079 L42.0369231,35.201199 C41.9792637,35.0454974 41.8211538,35.1018534 41.8211538,35.1018534 C41.4113736,35.2543037 40.8307912,35.5263298 39.4727143,35.5234398 C38.5860659,35.5219948 37.9286044,35.2608063 37.5155604,34.8529476 C37.0934505,34.4356963 36.8856593,33.8230052 36.8504835,32.9574346 L42.5703626,32.9617696 C42.5703626,32.9617696 42.7212198,32.9603246 42.7368132,32.8136545 C42.742978,32.7529634 42.933,31.6431832 42.5656484,30.3596387 L42.5656484,30.3596387 Z" id="Fill-9" fill="#FFFFFF" sketch:type="MSShapeGroup"></path>
                <path d="M24.5113846,35.2824817 C24.2869121,35.1040209 24.2557253,35.0603089 24.1813846,34.9443455 C24.0678791,34.7698586 24.0098571,34.5213141 24.0098571,34.2030471 C24.0098571,33.7027068 24.1766703,33.3421728 24.5204505,33.1001309 C24.5168242,33.1008534 25.0136374,32.6731257 26.1795165,32.6882984 C26.9990769,32.6987749 27.7326923,32.8201571 27.7326923,32.8201571 L27.7326923,35.4103665 L27.7334176,35.4103665 C27.7334176,35.4103665 27.0063297,35.5660681 26.1878571,35.615199 C25.0245165,35.6849215 24.5077582,35.2813979 24.5113846,35.2824817 L24.5113846,35.2824817 Z M26.7876593,31.2775916 C26.5555714,31.2606126 26.2549451,31.2523037 25.8944835,31.2523037 C25.4045604,31.2523037 24.9305934,31.3129948 24.4856374,31.4322094 C24.0388681,31.5521466 23.6370659,31.7378325 23.2914725,31.9838482 C22.9437033,32.2323927 22.6644725,32.5484921 22.4613956,32.9238377 C22.2586813,33.2999058 22.1553297,33.7417225 22.1553297,34.2370052 C22.1553297,34.7424031 22.2434505,35.1802461 22.4175165,35.5378901 C22.5926703,35.8980628 22.8432527,36.198267 23.1634615,36.4301937 C23.4814945,36.6606754 23.8738681,36.8297435 24.328978,36.9330628 C24.7782857,37.0352984 25.2874286,37.0869581 25.8437143,37.0869581 C26.4311868,37.0869581 27.0153956,37.0378272 27.5814725,36.9428168 C28.1428352,36.847445 28.8311209,36.708 29.0222308,36.6639267 C29.212978,36.6202147 29.4233077,36.5627749 29.4233077,36.5627749 C29.5647363,36.5270105 29.5538571,36.3763665 29.5538571,36.3763665 L29.5505934,31.1648796 C29.5505934,30.0218639 29.2445275,29.1750785 28.6414615,28.649089 C28.0412967,28.1256283 27.1575495,27.8611885 26.0141538,27.8611885 C25.5847912,27.8611885 24.8950549,27.9189895 24.4809231,28.0017173 C24.4809231,28.0017173 23.232,28.2430366 22.7177802,28.6443927 C22.7177802,28.6443927 22.6046374,28.7137539 22.6662857,28.8709005 L23.0713516,29.9546702 C23.1217582,30.095199 23.2591978,30.0471518 23.2591978,30.0471518 C23.2591978,30.0471518 23.3023516,30.0301728 23.3531209,30.0001885 C24.4533626,29.4041152 25.8455275,29.4218168 25.8455275,29.4218168 C26.4634615,29.4218168 26.9396044,29.5464503 27.2594505,29.7902984 C27.5716813,30.029089 27.7301538,30.3885393 27.7301538,31.1482618 L27.7301538,31.3892199 C27.2395055,31.3184136 26.7876593,31.2775916 26.7876593,31.2775916 L26.7876593,31.2775916 Z" id="Fill-10" fill="#FFFFFF" sketch:type="MSShapeGroup"></path>
                <path d="M72.9278242,28.3416597 C72.9717033,28.2130524 72.8795934,28.150555 72.8418791,28.136466 C72.7443297,28.0996178 72.258033,27.9973822 71.8830659,27.9742618 C71.163956,27.929466 70.7654176,28.0501257 70.4078571,28.2105236 C70.0531978,28.3698377 69.6604615,28.6274136 69.4414286,28.9211152 L69.4407033,28.2260576 C69.4407033,28.1306859 69.3728901,28.0537382 69.2764286,28.0537382 L67.8099231,28.0537382 C67.7149121,28.0537382 67.646011,28.1306859 67.646011,28.2260576 L67.646011,36.7271466 C67.646011,36.8225183 67.7236154,36.9001885 67.8197143,36.9001885 L69.3228462,36.9001885 C69.4185824,36.9001885 69.4961868,36.8225183 69.4961868,36.7271466 L69.4961868,32.4805759 C69.4961868,31.9101518 69.5592857,31.3418953 69.6851209,30.9846126 C69.8091429,30.6309424 69.9777692,30.3491623 70.1866484,30.1464974 C70.3948022,29.944555 70.6330549,29.8022199 70.8930659,29.7231047 C71.1592418,29.6425445 71.452978,29.6154503 71.6604066,29.6154503 C71.9595824,29.6154503 72.2888571,29.6920366 72.2888571,29.6920366 C72.3990989,29.7043194 72.4603846,29.6371257 72.4977363,29.5381414 C72.596011,29.2776754 72.8745165,28.497 72.9278242,28.3416597" id="Fill-11" fill="#FFFFFF" sketch:type="MSShapeGroup"></path>
                <path d="M58.8201429,24.4021571 C58.6373736,24.3461623 58.4716484,24.3085916 58.2547912,24.2684921 C58.0346703,24.2287539 57.7732088,24.2085236 57.4772967,24.2085236 C56.4426923,24.2085236 55.6271209,24.4996963 55.0545165,25.0748168 C54.4859011,25.6456021 54.098967,26.5151466 53.904956,27.6592461 L53.834967,28.0454293 L52.5363626,28.0454293 C52.5363626,28.0454293 52.3778901,28.0389267 52.3445275,28.2112461 L52.1312967,29.3961675 C52.1164286,29.5096021 52.1653846,29.5804084 52.3176923,29.5796859 L53.5818462,29.5796859 L52.2991978,36.7119738 C52.1987473,37.2863717 52.0837912,37.7588953 51.9565055,38.1169005 C51.831033,38.4702094 51.7084615,38.7350105 51.5576044,38.927199 C51.4114615,39.1132461 51.2729341,39.2501623 51.033956,39.33 C50.8366813,39.3961099 50.6096703,39.4264555 50.3609011,39.4264555 C50.2223736,39.4264555 50.0381538,39.4033351 49.9021648,39.3762408 C49.7661758,39.3495079 49.6954615,39.3191623 49.5935604,39.276534 C49.5935604,39.276534 49.4452418,39.220178 49.3868571,39.3682932 C49.3393516,39.4893141 49.0024615,40.4123246 48.9625714,40.5264817 C48.921956,40.6391937 48.9788901,40.7280628 49.0506923,40.753712 C49.218956,40.8136806 49.3440659,40.8519738 49.5732527,40.905801 C49.8916484,40.9805812 50.16,40.9852775 50.4113077,40.9852775 C50.9378571,40.9852775 51.4176264,40.9115812 51.8154396,40.7685236 C52.2157912,40.6243822 52.5642857,40.3733089 52.8725275,40.0333665 C53.2057912,39.6666911 53.4153956,39.2826754 53.6159341,38.7588534 C53.8142967,38.2397277 53.9832857,37.5952461 54.1185495,36.8441937 L55.4073626,29.5796859 L57.2916264,29.5796859 C57.2916264,29.5796859 57.4504615,29.585466 57.4834615,29.4138691 L57.6966923,28.2289476 C57.7115604,28.1155131 57.662967,28.0447068 57.5099341,28.0454293 L55.6811538,28.0454293 C55.6902198,28.0042461 55.7732637,27.363377 55.9832308,26.7600785 C56.0728022,26.5025026 56.2414286,26.2947801 56.3843077,26.1520838 C56.5246484,26.0119162 56.686022,25.9118482 56.8633516,25.8551309 C57.045033,25.7962461 57.2513736,25.7669843 57.4772967,25.7669843 C57.6495495,25.7669843 57.8185385,25.7875759 57.9472747,25.8143089 C58.1246044,25.8518796 58.1935055,25.8717487 58.2399231,25.8854764 C58.4263187,25.9421937 58.4513407,25.8872827 58.487967,25.7973298 L58.9253077,24.6008482 C58.9702747,24.4722408 58.8607582,24.4180524 58.8201429,24.4021571" id="Fill-12" fill="#FFFFFF" sketch:type="MSShapeGroup"></path>
                <path d="M33.2636374,36.7271466 C33.2636374,36.8225183 33.1954615,36.9001885 33.0997253,36.9001885 L31.5828132,36.9001885 C31.4867143,36.9001885 31.4185385,36.8225183 31.4185385,36.7271466 L31.4185385,24.5643613 C31.4185385,24.4693508 31.4867143,24.3924031 31.5828132,24.3924031 L33.0997253,24.3924031 C33.1954615,24.3924031 33.2636374,24.4693508 33.2636374,24.5643613 L33.2636374,36.7271466" id="Fill-13" fill="#FFFFFF" sketch:type="MSShapeGroup"></path>
            </g>
        </g>
    </g>
</svg>