<?xml version="1.0" encoding="UTF-8" standalone="no"?>
<svg width="19px" height="16px" viewBox="0 0 19 16" version="1.1" xmlns="http://www.w3.org/2000/svg" xmlns:xlink="http://www.w3.org/1999/xlink" xmlns:sketch="http://www.bohemiancoding.com/sketch/ns">
    <!-- Generator: Sketch 3.1.1 (8761) - http://www.bohemiancoding.com/sketch -->
    <title>Twitter</title>
    <desc>Created with Sketch.</desc>
    <defs></defs>
    <g id="Clean" stroke="none" stroke-width="1" fill="none" fill-rule="evenodd" sketch:type="MSPage">
        <g id="Sidepanel" sketch:type="MSArtboardGroup" transform="translate(-158.000000, -974.000000)" fill="#BFBFBF">
            <path d="M176.724078,975.805876 C176.193402,976.582089 175.551847,977.243445 174.799395,977.789963 C174.807316,977.90085 174.811276,978.067179 174.811276,978.288954 C174.811276,979.318626 174.660788,980.346301 174.359807,981.372012 C174.058826,982.397723 173.601422,983.381836 172.987579,984.324381 C172.373737,985.266926 171.643077,986.100551 170.795579,986.825281 C169.94808,987.550011 168.926345,988.128202 167.730343,988.559872 C166.53434,988.991542 165.255191,989.207373 163.892857,989.207373 C161.746389,989.207373 159.782123,988.633142 158,987.484663 C158.277219,987.516345 158.586116,987.532186 158.926699,987.532186 C160.708822,987.532186 162.296868,986.985677 163.690884,985.892641 C162.859227,985.8768 162.114707,985.621366 161.457301,985.126332 C160.799896,984.631298 160.348432,983.999644 160.102895,983.231351 C160.364273,983.270954 160.605846,983.290755 160.827621,983.290755 C161.168204,983.290755 161.504823,983.247192 161.837486,983.160066 C160.950384,982.977894 160.215765,982.53633 159.633605,981.835361 C159.051444,981.134393 158.760369,980.320569 158.760369,979.393865 L158.760369,979.346342 C159.298966,979.647323 159.877157,979.809692 160.49496,979.833453 C159.972204,979.484949 159.556381,979.029525 159.24748,978.467166 C158.938579,977.904807 158.78413,977.294934 158.78413,976.637529 C158.78413,975.940521 158.95838,975.295006 159.306884,974.700965 C160.26527,975.881126 161.431553,976.825637 162.805768,977.534526 C164.179982,978.243415 165.651202,978.637456 167.21947,978.716662 C167.156106,978.415681 167.124424,978.122625 167.124424,977.837486 C167.124424,976.776132 167.498664,975.871224 168.247156,975.122732 C168.995647,974.37424 169.900556,974 170.96191,974 C172.070786,974 173.005397,974.403942 173.765769,975.211838 C174.629109,975.045506 175.440952,974.736609 176.201325,974.285138 C175.908265,975.196001 175.345914,975.900919 174.514257,976.399914 C175.250868,976.320708 175.987468,976.122697 176.724078,975.805876 L176.724078,975.805876 Z" id="Twitter" sketch:type="MSShapeGroup"></path>
        </g>
    </g>
</svg>